<svg 
 xmlns="http://www.w3.org/2000/svg"
 xmlns:xlink="http://www.w3.org/1999/xlink"
 width="1.87cm" height="1.552cm">
<path fill-rule="evenodd"  fill="rgb(212, 212, 212)"
 d="M20.300,-0.000 C18.686,1.031 16.669,2.363 14.290,3.996 C11.891,5.629 9.619,7.605 7.496,9.926 C5.415,12.203 3.631,14.803 2.187,17.703 C0.722,20.603 -0.000,23.805 -0.000,27.328 C-0.000,32.312 0.956,36.352 2.888,39.402 C4.820,42.475 8.026,44.000 12.507,44.000 C15.373,44.000 17.624,43.012 19.280,41.014 C20.915,39.037 21.744,36.889 21.744,34.590 C21.744,31.367 20.852,28.939 19.068,27.264 C17.284,25.588 14.864,24.750 11.764,24.750 L8.154,24.750 C8.451,21.957 8.961,19.658 9.725,17.875 C10.468,16.113 11.551,14.416 12.953,12.783 C14.460,11.064 15.947,9.668 17.391,8.615 C18.834,7.584 20.746,6.316 23.103,4.855 L20.300,-0.000 L20.300,-0.000 ZM50.197,-0.000 C48.583,1.031 46.566,2.363 44.188,3.996 C41.788,5.629 39.516,7.605 37.393,9.926 C35.312,12.203 33.528,14.803 32.085,17.703 C30.619,20.603 29.897,23.805 29.897,27.328 C29.897,32.312 30.853,36.352 32.785,39.402 C34.718,42.475 37.924,44.000 42.404,44.000 C45.271,44.000 47.522,43.012 49.178,41.014 C50.813,39.037 51.641,36.889 51.641,34.590 C51.641,31.367 50.749,28.939 48.965,27.264 C47.182,25.588 44.761,24.750 41.661,24.750 L38.051,24.750 C38.349,21.957 38.858,19.680 39.580,17.918 C40.302,16.178 41.406,14.459 42.850,12.783 C44.358,11.064 45.844,9.668 47.288,8.615 C48.732,7.584 50.643,6.316 53.000,4.855 L50.197,-0.000 L50.197,-0.000 Z"/>
</svg>