<svg 
 xmlns="http://www.w3.org/2000/svg"
 xmlns:xlink="http://www.w3.org/1999/xlink"
 width="0.635cm" height="0.635cm">
<path fill-rule="evenodd"  fill="rgb(186, 46, 31)"
 d="M-0.000,9.000 C-0.000,4.029 4.029,-0.000 9.000,-0.000 C13.971,-0.000 18.000,4.029 18.000,9.000 C18.000,13.971 13.971,18.000 9.000,18.000 C4.029,18.000 -0.000,13.971 -0.000,9.000 Z"/>
</svg>
<svg 
 xmlns="http://www.w3.org/2000/svg"
 xmlns:xlink="http://www.w3.org/1999/xlink"
 width="0.282cm" height="0.282cm">
<path fill-rule="evenodd"  fill="rgb(255, 255, 255)"
 d="M1.000,4.000 C1.000,2.343 2.343,1.000 4.000,1.000 C5.657,1.000 7.000,2.343 7.000,4.000 C7.000,5.657 5.657,7.000 4.000,7.000 C2.343,7.000 1.000,5.657 1.000,4.000 ZM-0.000,4.000 C-0.000,6.209 1.791,8.000 4.000,8.000 C6.209,8.000 8.000,6.209 8.000,4.000 C8.000,1.791 6.209,-0.000 4.000,-0.000 C1.791,-0.000 -0.000,1.791 -0.000,4.000 Z"/>
</svg>
<svg 
 xmlns="http://www.w3.org/2000/svg"
 xmlns:xlink="http://www.w3.org/1999/xlink"
 width="0.176cm" height="0.141cm">
<path fill-rule="evenodd"  fill="rgb(255, 255, 255)"
 d="M-0.000,0.796 L1.193,-0.000 L5.000,3.206 L2.581,4.000 L-0.000,0.796 Z"/>
</svg>
