<svg 
 xmlns="http://www.w3.org/2000/svg"
 xmlns:xlink="http://www.w3.org/1999/xlink"
 width="0.564cm" height="0.494cm">
<path fill-rule="evenodd"  fill="rgb(255, 255, 255)"
 d="M15.500,2.044 C14.950,2.298 14.350,2.480 13.731,2.551 C14.369,2.145 14.855,1.505 15.083,0.744 C14.493,1.119 13.827,1.394 13.132,1.536 C12.570,0.896 11.771,0.500 10.885,0.500 C9.181,0.500 7.811,1.973 7.811,3.781 C7.811,4.034 7.839,4.288 7.887,4.532 C5.336,4.390 3.061,3.090 1.547,1.099 C1.280,1.587 1.128,2.145 1.128,2.755 C1.128,3.892 1.671,4.898 2.499,5.487 C1.994,5.466 1.519,5.314 1.109,5.070 L1.109,5.111 C1.109,6.705 2.166,8.026 3.575,8.330 C3.318,8.401 3.042,8.442 2.766,8.442 C2.566,8.442 2.375,8.422 2.185,8.391 C2.575,9.691 3.708,10.636 5.060,10.666 C4.003,11.550 2.680,12.068 1.242,12.068 C0.985,12.068 0.747,12.058 0.500,12.027 C1.861,12.962 3.479,13.500 5.221,13.500 C10.876,13.500 13.969,8.503 13.969,4.166 C13.969,4.024 13.969,3.882 13.960,3.740 C14.560,3.273 15.083,2.694 15.500,2.044 L15.500,2.044 Z"/>
</svg>