<svg 
 xmlns="http://www.w3.org/2000/svg"
 xmlns:xlink="http://www.w3.org/1999/xlink"
 width="0.564cm" height="0.564cm">
<path fill-rule="evenodd"  fill="rgb(255, 255, 255)"
 d="M8.585,12.775 C8.585,14.312 6.884,14.840 5.821,14.840 C4.196,14.840 1.768,14.189 1.768,12.502 C1.768,10.675 4.511,10.217 6.049,10.217 C6.171,10.217 6.285,10.217 6.406,10.235 C7.224,10.859 8.585,11.544 8.585,12.775 L8.585,12.775 ZM7.338,4.817 C7.338,5.767 6.877,6.538 5.900,6.538 C4.117,6.538 2.993,4.685 2.993,3.332 C2.993,2.191 3.713,1.102 5.185,1.102 C6.627,1.102 7.338,3.502 7.338,4.817 L7.338,4.817 ZM6.278,0.500 C5.828,0.500 5.298,0.558 4.612,0.667 C2.566,1.001 1.188,2.513 1.188,4.327 C1.188,5.891 2.802,7.198 4.983,7.198 C5.241,7.198 5.500,7.176 5.679,7.143 C5.607,7.466 5.522,7.691 5.522,8.029 C5.522,8.603 5.743,9.116 5.978,9.557 C3.935,9.611 1.137,10.118 0.342,11.720 C0.148,12.089 -0.000,12.494 -0.000,12.907 C-0.000,14.926 2.235,15.500 4.666,15.500 C6.135,15.500 7.400,15.270 8.595,14.497 C9.380,13.847 9.889,13.030 9.889,12.019 C9.889,9.403 6.933,8.880 6.933,7.558 C6.933,6.250 9.186,6.094 9.186,4.009 C9.186,2.895 8.724,1.746 7.712,1.160 L8.330,1.160 L9.839,0.500 L6.278,0.500 L6.278,0.500 ZM16.000,2.835 L13.634,2.835 L13.634,0.500 L12.364,0.500 L12.364,2.835 L9.954,2.835 L9.954,4.108 L12.364,4.108 L12.364,6.102 L13.634,6.102 L13.634,4.108 L16.000,4.108 L16.000,2.835 L16.000,2.835 Z"/>
</svg>