<svg 
 xmlns="http://www.w3.org/2000/svg"
 xmlns:xlink="http://www.w3.org/1999/xlink"
 width="16.051cm" height="15.064cm">
<defs>
<linearGradient id="PSgrad_0" x1="0%" x2="0%" y1="100%" y2="0%">
  <stop offset="5%" stop-color="rgb(158,154,149)" stop-opacity="1" />
  <stop offset="15%" stop-color="rgb(151,148,145)" stop-opacity="1" />
  <stop offset="25%" stop-color="rgb(163,159,154)" stop-opacity="1" />
  <stop offset="40%" stop-color="rgb(162,157,152)" stop-opacity="1" />
  <stop offset="50%" stop-color="rgb(101,101,101)" stop-opacity="1" />
  <stop offset="60%" stop-color="rgb(152,148,144)" stop-opacity="1" />
  <stop offset="85%" stop-color="rgb(228,228,228)" stop-opacity="1" />
  <stop offset="90%" stop-color="rgb(194,189,184)" stop-opacity="1" />
  <stop offset="100%" stop-color="rgb(89,81,86)" stop-opacity="1" />
</linearGradient>
<linearGradient id="PSgrad_1" x1="0%" x2="100%" y1="0%" y2="0%">
  <stop offset="0%" stop-color="rgb(131,123,123)" stop-opacity="1" />
  <stop offset="25%" stop-color="rgb(169,163,159)" stop-opacity="1" />
  <stop offset="50%" stop-color="rgb(191,187,183)" stop-opacity="1" />
  <stop offset="75%" stop-color="rgb(204,203,198)" stop-opacity="1" />
  <stop offset="100%" stop-color="rgb(220,222,217)" stop-opacity="1" />
</linearGradient>

</defs>
<path fill-rule="evenodd"  fill="rgb(224, 224, 224)"
 d="M67.000,294.336 C48.036,294.336 32.664,278.964 32.664,260.000 L41.000,260.000 L20.500,229.000 L-0.000,260.000 L8.000,260.000 C8.000,292.585 34.415,319.000 67.000,319.000 C66.974,318.985 66.974,294.249 67.000,294.336 Z"/>
<path fill-rule="evenodd"  fill="rgb(204, 204, 204)"
 d="M85.366,323.010 C85.366,317.049 89.100,313.306 95.045,313.306 L137.321,313.306 C143.266,313.306 147.000,317.049 147.000,323.010 L147.000,417.295 C147.000,423.256 143.266,427.000 137.321,427.000 L95.045,427.000 C89.100,427.000 85.366,423.256 85.366,417.295 L85.366,323.010 Z"/>
<path fill-rule="evenodd"  fill="rgb(255, 255, 255)"
 d="M86.951,324.471 C86.951,318.589 90.493,314.895 96.132,314.895 L136.234,314.895 C141.873,314.895 145.415,318.589 145.415,324.471 L145.415,415.835 C145.415,421.716 141.873,425.411 136.234,425.411 L96.132,425.411 C90.493,425.411 86.951,421.716 86.951,415.835 L86.951,324.471 Z"/>
<path fill-rule="evenodd"  fill="rgb(14, 14, 14)"
 d="M87.560,323.976 C87.560,318.160 91.029,314.506 96.550,314.506 L135.816,314.506 C141.337,314.506 144.805,318.160 144.805,323.976 L144.805,414.329 C144.805,420.146 141.337,423.800 135.816,423.800 L96.550,423.800 C91.029,423.800 87.560,420.146 87.560,414.329 L87.560,323.976 Z"/>
<path fill-rule="evenodd"  fill="rgb(0, 0, 0)"
 d="M110.605,415.089 C110.605,411.966 113.129,409.435 116.244,409.435 C119.358,409.435 121.883,411.966 121.883,415.089 C121.883,418.212 119.358,420.743 116.244,420.743 C113.129,420.743 110.605,418.212 110.605,415.089 Z"/>
<path fill-rule="evenodd"  fill="rgb(255, 255, 255)"
 d="M114.232,414.157 C114.232,413.642 114.648,413.225 115.162,413.225 L117.326,413.225 C117.839,413.225 118.256,413.642 118.256,414.157 L118.256,416.021 C118.256,416.536 117.839,416.953 117.326,416.953 L115.162,416.953 C114.648,416.953 114.232,416.536 114.232,416.021 L114.232,414.157 Z"/>
<path fill-rule="evenodd"  fill="rgb(22, 36, 39)"
 d="M110.544,322.025 C110.544,321.349 111.076,320.802 111.733,320.802 L120.633,320.802 C121.290,320.802 121.822,321.349 121.822,322.025 L121.822,322.025 C121.822,322.700 121.290,323.247 120.633,323.247 L111.733,323.247 C111.076,323.247 110.544,322.700 110.544,322.025 L110.544,322.025 Z"/>
<path fill-rule="evenodd"  fill="rgb(15, 30, 35)"
 d="M111.153,322.025 C111.153,321.687 111.431,321.413 111.774,321.413 L120.591,321.413 C120.934,321.413 121.212,321.687 121.212,322.025 L121.212,322.025 C121.212,322.362 120.934,322.636 120.591,322.636 L111.774,322.636 C111.431,322.636 111.153,322.362 111.153,322.025 L111.153,322.025 Z"/>
<path fill-rule="evenodd"  fill="rgb(153, 153, 153)"
 d="M89.999,333.279 C89.999,330.681 90.137,330.543 92.727,330.543 L139.639,330.543 C142.229,330.543 142.367,330.681 142.367,333.279 L142.367,404.215 C142.367,406.813 142.229,406.951 139.639,406.951 L92.727,406.951 C90.137,406.951 89.999,406.813 89.999,404.215 L89.999,333.279 Z"/>
<path fill-rule="evenodd"  fill="rgb(153, 153, 153)"
 d="M126.394,313.183 C126.394,313.082 126.476,313.000 126.577,313.000 L136.209,313.000 C136.310,313.000 136.392,313.082 136.392,313.183 L136.392,313.183 C136.392,313.285 136.310,313.367 136.209,313.367 L126.577,313.367 C126.476,313.367 126.394,313.285 126.394,313.183 L126.394,313.183 Z"/>
<path fill-rule="evenodd"  fill="rgb(153, 153, 153)"
 d="M85.183,350.326 C85.082,350.326 85.000,350.176 85.000,349.990 L85.000,332.324 C85.000,332.138 85.082,331.988 85.183,331.988 L85.183,331.988 C85.284,331.988 85.366,332.138 85.366,332.324 L85.366,349.990 C85.366,350.176 85.284,350.326 85.183,350.326 L85.183,350.326 Z"/>
<path fill-rule="evenodd"  fill="rgb(153, 153, 153)"
 d="M85.183,329.015 C85.082,329.015 85.000,328.975 85.000,328.926 L85.000,324.214 C85.000,324.165 85.082,324.125 85.183,324.125 L85.183,324.125 C85.284,324.125 85.366,324.165 85.366,324.214 L85.366,328.926 C85.366,328.975 85.284,329.015 85.183,329.015 L85.183,329.015 Z"/>
<path fill-rule="evenodd"  fill="rgb(204, 204, 204)"
 d="M267.990,365.366 C273.950,365.366 277.694,369.100 277.694,375.045 L277.694,417.321 C277.694,423.266 273.950,427.000 267.990,427.000 L173.705,427.000 C167.744,427.000 164.000,423.266 164.000,417.321 L164.000,375.045 C164.000,369.100 167.744,365.366 173.705,365.366 L267.990,365.366 Z"/>
<path fill-rule="evenodd"  fill="rgb(255, 255, 255)"
 d="M266.529,366.951 C272.411,366.951 276.105,370.493 276.105,376.132 L276.105,416.234 C276.105,421.873 272.411,425.415 266.529,425.415 L175.165,425.415 C169.283,425.415 165.589,421.873 165.589,416.234 L165.589,376.132 C165.589,370.493 169.283,366.951 175.165,366.951 L266.529,366.951 Z"/>
<path fill-rule="evenodd"  fill="rgb(14, 14, 14)"
 d="M266.024,368.561 C271.840,368.561 275.494,372.029 275.494,377.550 L275.494,416.816 C275.494,422.337 271.840,425.805 266.024,425.805 L175.670,425.805 C169.854,425.805 166.200,422.337 166.200,416.816 L166.200,377.550 C166.200,372.029 169.854,368.561 175.670,368.561 L266.024,368.561 Z"/>
<path fill-rule="evenodd"  fill="rgb(0, 0, 0)"
 d="M174.911,391.605 C178.034,391.605 180.565,394.129 180.565,397.244 C180.565,400.358 178.034,402.883 174.911,402.883 C171.788,402.883 169.257,400.358 169.257,397.244 C169.257,394.129 171.788,391.605 174.911,391.605 Z"/>
<path fill-rule="evenodd"  fill="rgb(255, 255, 255)"
 d="M175.843,395.232 C176.358,395.232 176.775,395.648 176.775,396.162 L176.775,398.326 C176.775,398.839 176.358,399.256 175.843,399.256 L173.979,399.256 C173.464,399.256 173.047,398.839 173.047,398.326 L173.047,396.162 C173.047,395.648 173.464,395.232 173.979,395.232 L175.843,395.232 Z"/>
<path fill-rule="evenodd"  fill="rgb(22, 36, 39)"
 d="M267.975,390.544 C268.651,390.544 269.198,391.076 269.198,391.733 L269.198,400.633 C269.198,401.290 268.651,401.822 267.975,401.822 L267.975,401.822 C267.300,401.822 266.753,401.290 266.753,400.633 L266.753,391.733 C266.753,391.076 267.300,390.544 267.975,390.544 L267.975,390.544 Z"/>
<path fill-rule="evenodd"  fill="rgb(15, 30, 35)"
 d="M267.975,391.153 C268.313,391.153 268.587,391.431 268.587,391.774 L268.587,400.591 C268.587,400.934 268.313,401.212 267.975,401.212 L267.975,401.212 C267.638,401.212 267.364,400.934 267.364,400.591 L267.364,391.774 C267.364,391.431 267.638,391.153 267.975,391.153 L267.975,391.153 Z"/>
<path fill-rule="evenodd"  fill="rgb(153, 153, 153)"
 d="M257.721,370.999 C260.319,370.999 260.457,371.136 260.457,373.727 L260.457,420.639 C260.457,423.229 260.319,423.367 257.721,423.367 L186.785,423.367 C184.187,423.367 184.049,423.229 184.049,420.639 L184.049,373.727 C184.049,371.136 184.187,370.999 186.785,370.999 L257.721,370.999 Z"/>
<path fill-rule="evenodd"  fill="rgb(153, 153, 153)"
 d="M277.817,407.394 C277.918,407.394 278.000,407.476 278.000,407.577 L278.000,417.209 C278.000,417.310 277.918,417.392 277.817,417.392 L277.817,417.392 C277.715,417.392 277.633,417.310 277.633,417.209 L277.633,407.577 C277.633,407.476 277.715,407.394 277.817,407.394 L277.817,407.394 Z"/>
<path fill-rule="evenodd"  fill="rgb(153, 153, 153)"
 d="M239.674,366.183 C239.674,366.082 239.824,366.000 240.009,366.000 L257.676,366.000 C257.862,366.000 258.012,366.082 258.012,366.183 L258.012,366.183 C258.012,366.284 257.862,366.366 257.676,366.366 L240.009,366.366 C239.824,366.366 239.674,366.284 239.674,366.183 L239.674,366.183 Z"/>
<path fill-rule="evenodd"  fill="rgb(153, 153, 153)"
 d="M261.985,366.183 C261.985,366.082 262.025,366.000 262.074,366.000 L266.786,366.000 C266.835,366.000 266.875,366.082 266.875,366.183 L266.875,366.183 C266.875,366.284 266.835,366.366 266.786,366.366 L262.074,366.366 C262.025,366.366 261.985,366.284 261.985,366.183 L261.985,366.183 Z"/>
<path fill-rule="evenodd"  fill="rgb(224, 224, 224)"
 d="M381.836,341.500 C381.836,360.463 366.464,375.836 347.500,375.836 L347.500,367.500 L316.500,388.000 L347.500,408.500 L347.500,400.500 C380.085,400.500 406.500,374.085 406.500,341.500 C406.485,341.526 381.749,341.526 381.836,341.500 Z"/>
<path fill-rule="evenodd"  fill="rgb(204, 204, 204)"
 d="M335.000,165.806 C335.000,160.397 338.419,157.000 343.862,157.000 L446.138,157.000 C451.581,157.000 455.000,160.397 455.000,165.806 L455.000,305.194 C455.000,310.602 451.581,314.000 446.138,314.000 L343.862,314.000 C338.419,314.000 335.000,310.602 335.000,305.194 L335.000,165.806 Z"/>
<path fill-rule="evenodd"  fill="rgb(255, 255, 255)"
 d="M336.451,166.131 C336.451,160.794 339.694,157.442 344.857,157.442 L445.143,157.442 C450.306,157.442 453.549,160.794 453.549,166.131 L453.549,302.869 C453.549,308.206 450.306,311.558 445.143,311.558 L344.857,311.558 C339.694,311.558 336.451,308.206 336.451,302.869 L336.451,166.131 Z"/>
<path fill-rule="evenodd"  fill="rgb(14, 14, 14)"
 d="M337.009,166.590 C337.009,161.312 340.185,157.997 345.240,157.997 L444.760,157.997 C449.815,157.997 452.991,161.312 452.991,166.590 L452.991,302.410 C452.991,307.688 449.815,311.003 444.760,311.003 L345.240,311.003 C340.185,311.003 337.009,307.688 337.009,302.410 L337.009,166.590 Z"/>
<path fill-rule="evenodd"  fill="rgb(0, 0, 0)"
 d="M389.775,303.099 C389.775,300.265 392.087,297.968 394.938,297.968 C397.790,297.968 400.102,300.265 400.102,303.099 C400.102,305.933 397.790,308.230 394.938,308.230 C392.087,308.230 389.775,305.933 389.775,303.099 Z"/>
<path fill-rule="evenodd"  fill="rgb(255, 255, 255)"
 d="M393.097,302.253 C393.097,301.786 393.478,301.407 393.948,301.407 L395.929,301.407 C396.399,301.407 396.780,301.786 396.780,302.253 L396.780,303.945 C396.780,304.412 396.399,304.791 395.929,304.791 L393.948,304.791 C393.478,304.791 393.097,304.412 393.097,303.945 L393.097,302.253 Z"/>
<path fill-rule="evenodd"  fill="rgb(153, 153, 153)"
 d="M348.625,175.124 C348.625,172.767 348.751,172.642 351.123,172.642 L438.643,172.642 C441.015,172.642 441.140,172.767 441.140,175.124 L441.140,293.324 C441.140,295.681 441.015,295.807 438.643,295.807 L351.123,295.807 C348.751,295.807 348.625,295.681 348.625,293.324 L348.625,175.124 Z"/>
<path fill-rule="evenodd"  fill="rgb(224, 224, 224)"
 d="M352.000,65.664 C370.963,65.664 386.336,81.036 386.336,100.000 L378.000,100.000 L398.500,131.000 L419.000,100.000 L411.000,100.000 C411.000,67.415 384.585,41.000 352.000,41.000 C352.026,41.015 352.026,65.751 352.000,65.664 Z"/>
<path fill-rule="evenodd"  fill="rgb(102, 102, 102)"
 d="M122.769,213.067 C122.769,213.067 122.525,226.566 119.147,230.490 C115.770,234.414 106.834,243.557 106.834,243.557 C106.834,243.557 106.479,246.003 107.558,247.187 C108.637,248.371 111.904,247.913 111.904,247.913 L198.040,247.913 C198.040,247.913 201.307,248.371 202.386,247.187 C203.465,246.003 203.110,243.557 203.110,243.557 C203.110,243.557 194.174,234.414 190.797,230.490 C187.419,226.566 187.175,213.067 187.175,213.067 L122.769,213.067 Z"/>
<path fill="url(#PSgrad_0)"
 d="M122.769,213.067 C122.769,213.067 122.525,226.566 119.147,230.490 C115.770,234.414 106.834,243.557 106.834,243.557 C106.834,243.557 106.479,246.003 107.558,247.187 C108.637,248.371 111.904,247.913 111.904,247.913 L198.040,247.913 C198.040,247.913 201.307,248.371 202.386,247.187 C203.465,246.003 203.110,243.557 203.110,243.557 C203.110,243.557 194.174,234.414 190.797,230.490 C187.419,226.566 187.175,213.067 187.175,213.067 L122.769,213.067 Z"/>
<path fill-rule="evenodd"  fill="rgb(102, 102, 102)"
 d="M-0.000,205.372 L-0.000,185.670 L310.000,185.670 L310.000,205.372 C310.000,209.664 306.514,213.144 302.214,213.144 L7.786,213.144 C3.486,213.144 -0.000,209.664 -0.000,205.372 Z"/>
<path fill="url(#PSgrad_1)"
 d="M-0.000,205.372 L-0.000,185.670 L310.000,185.670 L310.000,205.372 C310.000,209.664 306.514,213.144 302.214,213.144 L7.786,213.144 C3.486,213.144 -0.000,209.664 -0.000,205.372 Z"/>
<path fill-rule="evenodd"  fill="rgb(0, 0, 0)"
 d="M297.000,173.000 L13.000,173.000 L13.000,13.000 L297.000,13.000 L297.000,173.000 ZM-0.000,186.000 L310.000,186.000 L310.000,7.764 C310.000,3.476 306.514,-0.000 302.214,-0.000 L7.786,-0.000 C3.486,-0.000 -0.000,3.476 -0.000,7.764 L-0.000,186.000 Z"/>
<path fill-rule="evenodd"  fill="rgb(153, 153, 153)"
 d="M13.000,13.000 L297.000,13.000 L297.000,173.000 L13.000,173.000 L13.000,13.000 Z"/>
</svg>