<svg 
 xmlns="http://www.w3.org/2000/svg"
 xmlns:xlink="http://www.w3.org/1999/xlink"
 width="0.494cm" height="0.494cm">
<path fill-rule="evenodd"  fill="rgb(255, 255, 255)"
 d="M4.043,12.091 C4.043,11.037 3.250,10.182 2.272,10.182 C1.294,10.182 0.500,11.037 0.500,12.091 C0.500,13.145 1.294,14.000 2.272,14.000 C3.250,14.000 4.043,13.145 4.043,12.091 L4.043,12.091 ZM8.767,13.314 C8.611,11.196 7.752,9.197 6.350,7.696 C4.957,6.185 3.102,5.260 1.137,5.091 L1.090,5.091 C0.943,5.091 0.795,5.150 0.694,5.260 C0.565,5.379 0.500,5.548 0.500,5.727 L0.500,7.070 C0.500,7.398 0.731,7.666 1.035,7.696 C3.849,7.984 6.082,10.391 6.350,13.423 C6.378,13.751 6.627,14.000 6.931,14.000 L8.177,14.000 C8.343,14.000 8.500,13.930 8.611,13.791 C8.721,13.662 8.777,13.493 8.767,13.314 L8.767,13.314 ZM13.499,13.334 C13.325,9.854 11.969,6.582 9.672,4.116 C7.383,1.641 4.348,0.179 1.118,-0.000 L1.090,-0.000 C0.943,-0.000 0.795,0.060 0.684,0.179 C0.565,0.298 0.500,0.457 0.500,0.636 L0.500,2.058 C0.500,2.386 0.740,2.665 1.054,2.685 C6.414,3.023 10.687,7.626 10.991,13.403 C11.009,13.741 11.268,14.000 11.582,14.000 L12.901,14.000 C13.067,14.000 13.215,13.930 13.325,13.801 C13.445,13.672 13.509,13.503 13.499,13.334 L13.499,13.334 Z"/>
</svg>