<svg 
 xmlns="http://www.w3.org/2000/svg"
 xmlns:xlink="http://www.w3.org/1999/xlink"
 width="0.564cm" height="0.494cm">
<path fill-rule="evenodd"  fill="rgb(255, 255, 255)"
 d="M3.725,4.427 L0.683,4.427 L0.683,14.000 L3.725,14.000 L3.725,4.427 L3.725,4.427 ZM3.939,1.471 C3.929,0.715 3.266,-0.000 2.223,-0.000 C1.191,-0.000 0.500,0.715 0.500,1.652 C0.500,2.569 1.163,3.304 2.187,3.304 L2.205,3.304 C3.266,3.304 3.949,2.569 3.939,1.652 L3.939,1.471 L3.939,1.471 ZM15.500,8.443 C15.500,5.620 14.002,4.386 11.952,4.386 C10.139,4.205 9.345,5.161 8.907,5.818 L8.928,5.837 L8.928,4.585 L5.578,4.585 C5.578,4.585 5.619,5.394 5.578,13.930 L8.928,13.930 L8.928,8.588 C8.928,8.298 8.958,8.018 9.040,7.806 C9.284,7.236 9.834,6.646 10.760,6.646 C11.972,6.646 12.458,7.526 12.458,8.810 L12.458,13.930 L15.500,13.930 L15.500,8.443 L15.500,8.443 Z"/>
</svg>