<svg 
 xmlns="http://www.w3.org/2000/svg"
 xmlns:xlink="http://www.w3.org/1999/xlink"
 width="10.65cm" height="8.45cm">
<defs>
<linearGradient id="PSgrad_0" x1="0%" x2="0%" y1="100%" y2="0%">
  <stop offset="5%" stop-color="rgb(158,154,149)" stop-opacity="1" />
  <stop offset="15%" stop-color="rgb(151,148,145)" stop-opacity="1" />
  <stop offset="25%" stop-color="rgb(163,159,154)" stop-opacity="1" />
  <stop offset="40%" stop-color="rgb(162,157,152)" stop-opacity="1" />
  <stop offset="50%" stop-color="rgb(101,101,101)" stop-opacity="1" />
  <stop offset="60%" stop-color="rgb(152,148,144)" stop-opacity="1" />
  <stop offset="85%" stop-color="rgb(228,228,228)" stop-opacity="1" />
  <stop offset="90%" stop-color="rgb(194,189,184)" stop-opacity="1" />
  <stop offset="100%" stop-color="rgb(89,81,86)" stop-opacity="1" />
</linearGradient>
<linearGradient id="PSgrad_1" x1="0%" x2="100%" y1="0%" y2="0%">
  <stop offset="0%" stop-color="rgb(131,123,123)" stop-opacity="1" />
  <stop offset="25%" stop-color="rgb(169,163,159)" stop-opacity="1" />
  <stop offset="50%" stop-color="rgb(191,187,183)" stop-opacity="1" />
  <stop offset="75%" stop-color="rgb(204,203,198)" stop-opacity="1" />
  <stop offset="100%" stop-color="rgb(220,222,217)" stop-opacity="1" />
</linearGradient>

</defs>
<path fill-rule="evenodd"  fill="rgb(102, 102, 102)"
 d="M157.619,272.347 C157.619,272.347 157.306,289.602 152.970,294.618 C148.633,299.634 137.161,311.321 137.161,311.321 C137.161,311.321 136.706,314.448 138.091,315.961 C139.477,317.474 143.671,316.889 143.671,316.889 L254.258,316.889 C254.258,316.889 258.452,317.474 259.837,315.961 C261.223,314.448 260.767,311.321 260.767,311.321 C260.767,311.321 249.295,299.634 244.959,294.618 C240.622,289.602 240.309,272.347 240.309,272.347 L157.619,272.347 Z"/>
<path fill="url(#PSgrad_0)"
 d="M157.619,272.347 C157.619,272.347 157.306,289.602 152.970,294.618 C148.633,299.634 137.161,311.321 137.161,311.321 C137.161,311.321 136.706,314.448 138.091,315.961 C139.477,317.474 143.671,316.889 143.671,316.889 L254.258,316.889 C254.258,316.889 258.452,317.474 259.837,315.961 C261.223,314.448 260.767,311.321 260.767,311.321 C260.767,311.321 249.295,299.634 244.959,294.618 C240.622,289.602 240.309,272.347 240.309,272.347 L157.619,272.347 Z"/>
<path fill-rule="evenodd"  fill="rgb(102, 102, 102)"
 d="M-0.000,262.582 L-0.000,237.399 L398.000,237.399 L398.000,262.582 C398.000,268.069 393.524,272.517 388.004,272.517 L9.996,272.517 C4.476,272.517 -0.000,268.069 -0.000,262.582 Z"/>
<path fill="url(#PSgrad_1)"
 d="M-0.000,262.582 L-0.000,237.399 L398.000,237.399 L398.000,262.582 C398.000,268.069 393.524,272.517 388.004,272.517 L9.996,272.517 C4.476,272.517 -0.000,268.069 -0.000,262.582 Z"/>
<path fill-rule="evenodd"  fill="rgb(51, 51, 51)"
 d="M16.427,16.388 L381.573,16.388 L381.573,221.010 L16.427,221.010 L16.427,16.388 Z"/>
<path fill-rule="evenodd"  fill="rgb(0, 0, 0)"
 d="M381.575,221.010 L16.425,221.010 L16.425,16.390 L381.575,16.390 L381.575,221.010 ZM-0.000,237.399 L398.000,237.399 L398.000,9.788 C398.000,4.382 393.524,-0.000 388.004,-0.000 L9.996,-0.000 C4.476,-0.000 -0.000,4.382 -0.000,9.788 L-0.000,237.399 Z"/>
</svg>