<svg 
 xmlns="http://www.w3.org/2000/svg"
 xmlns:xlink="http://www.w3.org/1999/xlink"
 width="0.564cm" height="0.564cm">
<path fill-rule="evenodd"  fill="rgb(255, 255, 255)"
 d="M15.500,8.377 C15.500,4.135 11.986,0.500 8.112,0.500 C3.849,0.500 0.500,4.135 0.500,8.377 C0.500,11.624 2.242,14.080 5.056,15.003 C5.037,14.584 5.047,14.080 5.184,13.630 C5.184,13.630 5.331,13.149 6.158,9.500 C5.909,8.995 5.909,8.243 5.909,8.243 C5.909,7.068 6.567,6.190 7.384,6.190 C8.082,6.190 8.420,6.738 8.420,7.387 C8.420,8.109 7.973,9.191 7.743,10.191 C7.554,11.036 8.152,11.716 8.829,11.716 C9.956,11.716 10.713,9.789 10.713,7.511 C10.713,5.843 9.832,4.775 8.192,4.775 C5.870,4.775 4.449,6.264 4.449,8.263 C4.449,8.954 4.645,9.438 4.949,9.820 C5.086,9.995 5.105,10.057 5.056,10.263 C5.017,10.407 4.939,10.758 4.900,10.892 C4.851,11.098 4.694,11.170 4.527,11.098 C3.349,10.645 2.794,9.428 2.794,8.068 C2.794,5.885 4.792,2.913 8.401,2.913 C10.673,2.913 13.206,5.470 13.206,7.655 C13.206,10.768 10.979,13.087 8.960,13.087 C8.292,13.087 7.514,12.624 7.255,12.098 C6.806,13.715 6.717,13.979 6.717,13.979 C6.557,14.437 6.228,14.895 5.939,15.252 C6.637,15.415 7.355,15.500 8.112,15.500 C11.986,15.500 15.500,12.747 15.500,8.377 L15.500,8.377 Z"/>
</svg>