<svg 
 xmlns="http://www.w3.org/2000/svg"
 xmlns:xlink="http://www.w3.org/1999/xlink"
 width="2.89cm" height="3.25cm">
<path fill-rule="evenodd"  fill="rgb(51, 51, 51)"
 d="M34.881,3.415 C30.363,5.032 23.079,7.273 19.026,15.253 C14.974,23.233 14.563,26.875 15.062,36.560 C15.561,46.245 19.026,52.343 19.026,52.343 C19.026,52.343 16.870,51.068 14.270,52.343 C11.670,53.618 11.891,56.289 11.891,56.289 C11.891,56.289 13.854,71.200 15.062,74.440 C16.271,77.679 20.612,77.596 20.612,77.596 L24.575,79.174 C24.575,79.174 25.385,83.562 28.539,88.644 C31.694,93.727 35.674,95.747 35.674,95.747 L35.674,107.584 L-0.000,121.000 L109.000,121.000 L73.326,107.584 L73.326,95.747 C73.326,95.747 77.306,93.727 80.461,88.644 C83.615,83.562 84.424,79.174 84.424,79.174 L88.388,77.596 C88.388,77.596 92.729,77.679 93.938,74.440 C95.146,71.200 97.109,56.289 97.109,56.289 C97.109,56.289 97.330,53.618 94.730,52.343 C92.130,51.068 89.974,52.343 89.974,52.343 C89.974,52.343 93.439,46.245 93.938,36.560 C94.436,26.875 94.026,23.233 89.974,15.253 C85.921,7.273 78.637,5.032 74.119,3.415 C72.445,2.816 64.615,0.042 56.357,0.001 C46.865,-0.047 36.806,2.727 34.881,3.415 Z"/>
</svg>